# xmcd
#
# Track frame offsets: 
#        182
#        24550
#        41560
#        62352
#        80292
#        90292
#        110087
#        121662
#        140177
#        158632
#        171742
#
# Disc length: 2516 seconds
#
# Revision: 12
# Processed by: cddbd v1.5.2PL0 Copyright (c) Steve Scherf et al.
# Submitted via: ExactAudioCopy v1.1
#
DISCID=8909d20b
DTITLE=Alain Souchon - C'est deja ca
DYEAR=1993
DGENRE=Chanson
TTITLE0=Foule sentimentale
TTITLE1=L'amour a la machine
TTITLE2=Sous les jupes des filles
TTITLE3=Les regrets
TTITLE4=Les filles electriques
TTITLE5=Arlette Laguiller
TTITLE6=Chanter c'est lancer des balles
TTITLE7=Sans queue ni tete
TTITLE8=Le fil
TTITLE9=Le zebre
TTITLE10=C'est deja ca
EXTD=YEAR: 1993
EXTT0=
EXTT1=
EXTT2=
EXTT3=
EXTT4=
EXTT5=
EXTT6=
EXTT7=
EXTT8=
EXTT9=
EXTT10=
PLAYORDER=
